<svg width="59" height="12" viewBox="0 0 59 12" fill="none" xmlns="http://www.w3.org/2000/svg">
<path d="M2.372 2.732C3.396 2.732 4.188 2.948 4.748 3.38C5.308 3.804 5.588 4.44 5.588 5.288C5.588 6.192 5.296 6.864 4.712 7.304C4.128 7.744 3.352 7.964 2.384 7.964H1.34V11H0.2V2.732H2.372ZM2.336 7.064C3 7.064 3.504 6.936 3.848 6.68C4.2 6.424 4.376 5.964 4.376 5.3C4.376 4.708 4.2 4.28 3.848 4.016C3.504 3.752 3.008 3.62 2.36 3.62H1.34V7.064H2.336ZM10.1247 2.588C10.8207 2.588 11.4287 2.756 11.9487 3.092C12.4767 3.42 12.8847 3.904 13.1727 4.544C13.4687 5.184 13.6167 5.96 13.6167 6.872C13.6167 7.768 13.4687 8.536 13.1727 9.176C12.8847 9.816 12.4767 10.304 11.9487 10.64C11.4287 10.976 10.8207 11.144 10.1247 11.144C9.42866 11.144 8.81666 10.98 8.28866 10.652C7.76866 10.324 7.36066 9.84 7.06466 9.2C6.77666 8.56 6.63266 7.788 6.63266 6.884C6.63266 5.996 6.77666 5.228 7.06466 4.58C7.36066 3.932 7.77266 3.44 8.30066 3.104C8.82866 2.76 9.43666 2.588 10.1247 2.588ZM10.1247 3.524C9.40466 3.524 8.84466 3.796 8.44466 4.34C8.04466 4.884 7.84466 5.732 7.84466 6.884C7.84466 8.028 8.04466 8.868 8.44466 9.404C8.85266 9.94 9.41266 10.208 10.1247 10.208C11.6447 10.208 12.4047 9.096 12.4047 6.872C12.4047 4.64 11.6447 3.524 10.1247 3.524ZM17.9053 7.496H16.6213V11H15.4813V2.732H17.6533C18.6853 2.732 19.4653 2.928 19.9933 3.32C20.5293 3.712 20.7973 4.296 20.7973 5.072C20.7973 5.648 20.6493 6.116 20.3533 6.476C20.0573 6.836 19.6093 7.108 19.0093 7.292L21.2413 11H19.8853L17.9053 7.496ZM17.7733 6.62C18.3733 6.62 18.8253 6.5 19.1293 6.26C19.4333 6.012 19.5853 5.616 19.5853 5.072C19.5853 4.56 19.4293 4.192 19.1173 3.968C18.8133 3.736 18.3213 3.62 17.6413 3.62H16.6213V6.62H17.7733ZM27.3965 2.732L27.2765 3.704H24.9845V11H23.8445V3.704H21.4925V2.732H27.3965ZM28.7117 11V2.732H33.1037L32.9717 3.644H29.8517V6.464H32.5517V7.364H29.8517V11H28.7117ZM37.359 2.588C38.055 2.588 38.663 2.756 39.183 3.092C39.711 3.42 40.119 3.904 40.407 4.544C40.703 5.184 40.851 5.96 40.851 6.872C40.851 7.768 40.703 8.536 40.407 9.176C40.119 9.816 39.711 10.304 39.183 10.64C38.663 10.976 38.055 11.144 37.359 11.144C36.663 11.144 36.051 10.98 35.523 10.652C35.003 10.324 34.595 9.84 34.299 9.2C34.011 8.56 33.867 7.788 33.867 6.884C33.867 5.996 34.011 5.228 34.299 4.58C34.595 3.932 35.007 3.44 35.535 3.104C36.063 2.76 36.671 2.588 37.359 2.588ZM37.359 3.524C36.639 3.524 36.079 3.796 35.679 4.34C35.279 4.884 35.079 5.732 35.079 6.884C35.079 8.028 35.279 8.868 35.679 9.404C36.087 9.94 36.647 10.208 37.359 10.208C38.879 10.208 39.639 9.096 39.639 6.872C39.639 4.64 38.879 3.524 37.359 3.524ZM38.319 0.0679991L38.799 0.991999L36.207 1.94L35.919 1.352L38.319 0.0679991ZM43.8556 2.732V10.004H47.2516L47.1196 11H42.7156V2.732H43.8556ZM49.8322 2.732V11H48.6922V2.732H49.8322ZM55.1833 2.588C55.8793 2.588 56.4873 2.756 57.0073 3.092C57.5353 3.42 57.9433 3.904 58.2313 4.544C58.5273 5.184 58.6753 5.96 58.6753 6.872C58.6753 7.768 58.5273 8.536 58.2313 9.176C57.9433 9.816 57.5353 10.304 57.0073 10.64C56.4873 10.976 55.8793 11.144 55.1833 11.144C54.4873 11.144 53.8753 10.98 53.3473 10.652C52.8273 10.324 52.4193 9.84 52.1233 9.2C51.8353 8.56 51.6913 7.788 51.6913 6.884C51.6913 5.996 51.8353 5.228 52.1233 4.58C52.4193 3.932 52.8313 3.44 53.3593 3.104C53.8873 2.76 54.4953 2.588 55.1833 2.588ZM55.1833 3.524C54.4633 3.524 53.9033 3.796 53.5033 4.34C53.1033 4.884 52.9033 5.732 52.9033 6.884C52.9033 8.028 53.1033 8.868 53.5033 9.404C53.9113 9.94 54.4713 10.208 55.1833 10.208C56.7033 10.208 57.4633 9.096 57.4633 6.872C57.4633 4.64 56.7033 3.524 55.1833 3.524Z" fill="black"/>
</svg>
