<svg width="67" height="12" viewBox="0 0 67 12" fill="none" xmlns="http://www.w3.org/2000/svg">
<path d="M-0.00390625 11V2.62109H3.39453C5.10547 2.62109 5.96094 3.36914 5.96094 4.86523C5.96094 6.49414 4.79102 7.48828 2.45117 7.84766L2.22852 6.93359C3.94727 6.67969 4.80664 6.00586 4.80664 4.91211C4.80664 3.98242 4.30273 3.51758 3.29492 3.51758H1.08008V11H-0.00390625ZM8.25195 6.78711C8.25195 9.04883 9.27344 10.1797 11.3164 10.1797C13.3164 10.1797 14.3164 9.04883 14.3164 6.78711C14.3164 4.55664 13.3164 3.44141 11.3164 3.44141C9.27344 3.44141 8.25195 4.55664 8.25195 6.78711ZM7.10938 6.82227C7.10938 3.98242 8.51172 2.5625 11.3164 2.5625C14.0781 2.5625 15.459 3.98242 15.459 6.82227C15.459 9.64648 14.0781 11.0586 11.3164 11.0586C8.51172 11.0586 7.10938 9.64648 7.10938 6.82227ZM17.1641 11V2.62109H20.7383C22.332 2.62109 23.1289 3.29102 23.1289 4.63086C23.1289 5.7207 22.3496 6.52734 20.791 7.05078L23.668 11H22.2383L19.5723 7.23242V6.52344C21.1738 6.26953 21.9746 5.6543 21.9746 4.67773C21.9746 3.9043 21.5293 3.51758 20.6387 3.51758H18.248V11H17.1641ZM30.4707 2.62109V3.5H27.834V11H26.75V3.5H24.1133V2.62109H30.4707ZM37.2441 2.62109V3.5H32.8496V6.3125H37.0391V7.19141H32.8496V11H31.7656V2.62109H37.2441ZM39.3887 6.78711C39.3887 9.04883 40.4102 10.1797 42.4531 10.1797C44.4531 10.1797 45.4531 9.04883 45.4531 6.78711C45.4531 4.55664 44.4531 3.44141 42.4531 3.44141C40.4102 3.44141 39.3887 4.55664 39.3887 6.78711ZM38.2461 6.82227C38.2461 3.98242 39.6484 2.5625 42.4531 2.5625C45.2148 2.5625 46.5957 3.98242 46.5957 6.82227C46.5957 9.64648 45.2148 11.0586 42.4531 11.0586C39.6484 11.0586 38.2461 9.64648 38.2461 6.82227ZM42.5938 0.394531H43.9941L42.5938 1.79492H41.6328L42.5938 0.394531ZM49.3848 2.62109V10.1211H53.7676V11H48.3008V2.62109H49.3848ZM56.3223 2.62109V11H55.2383V2.62109H56.3223ZM59.3457 6.78711C59.3457 9.04883 60.3672 10.1797 62.4102 10.1797C64.4102 10.1797 65.4102 9.04883 65.4102 6.78711C65.4102 4.55664 64.4102 3.44141 62.4102 3.44141C60.3672 3.44141 59.3457 4.55664 59.3457 6.78711ZM58.2031 6.82227C58.2031 3.98242 59.6055 2.5625 62.4102 2.5625C65.1719 2.5625 66.5527 3.98242 66.5527 6.82227C66.5527 9.64648 65.1719 11.0586 62.4102 11.0586C59.6055 11.0586 58.2031 9.64648 58.2031 6.82227Z" fill="black"/>
</svg>
